<svg xmlns="http://www.w3.org/2000/svg" viewBox="0 0 64 64" role="img" aria-label="Favicon MauriceZoektWerk">
  <defs>
    <linearGradient id="g" x1="0" x2="1" y1="0" y2="1">
      <stop offset="0%" stop-color="#c58a2c" />
      <stop offset="100%" stop-color="#6d4312" />
    </linearGradient>
  </defs>
  <rect width="64" height="64" rx="16" fill="url(#g)" />
  <circle cx="32" cy="34" r="17" fill="#f6dfb4" opacity="0.96" />
  <path d="M32 12c4 0 7 2 9 5 3 0 5 2 5 5 3 2 4 5 4 8 0 4-2 7-5 9-1 6-6 9-13 9s-12-3-13-9c-3-2-5-5-5-9 0-3 2-6 4-8 0-3 2-5 5-5 2-3 5-5 9-5Z" fill="#8b5a1f" />
  <circle cx="26" cy="31" r="2" fill="#43260a" />
  <circle cx="38" cy="31" r="2" fill="#43260a" />
  <path d="M32 33l-3 4h6l-3-4Z" fill="#43260a" />
</svg>
