<svg xmlns="http://www.w3.org/2000/svg" viewBox="0 0 80 80" role="img" aria-label="Leeuwlogo">
  <defs>
    <linearGradient id="lionFill" x1="0" x2="1" y1="0" y2="1">
      <stop offset="0%" stop-color="#d1a04d" />
      <stop offset="100%" stop-color="#8b5a1f" />
    </linearGradient>
  </defs>
  <circle cx="40" cy="40" r="36" fill="url(#lionFill)" opacity="0.18" />
  <path
    d="M40 14c5 0 9 2 12 6 4 0 7 3 7 7 3 2 5 6 5 10 0 5-2 9-6 12-1 7-8 12-18 12s-17-5-18-12c-4-3-6-7-6-12 0-4 2-8 5-10 0-4 3-7 7-7 3-4 7-6 12-6Z"
    fill="#8b5a1f"
  />
  <ellipse cx="40" cy="42" rx="18" ry="16" fill="#f6dfb4" />
  <circle cx="33" cy="39" r="2.4" fill="#4a2a07" />
  <circle cx="47" cy="39" r="2.4" fill="#4a2a07" />
  <path d="M40 42l-4 5h8l-4-5Z" fill="#4a2a07" />
  <path d="M34 50c2 3 4 4 6 4s4-1 6-4" fill="none" stroke="#4a2a07" stroke-width="2" stroke-linecap="round" />
</svg>
